<mxfile host="Electron" modified="2024-02-12T19:02:45.789Z" agent="Mozilla/5.0 (Windows NT 10.0; Win64; x64) AppleWebKit/537.36 (KHTML, like Gecko) draw.io/22.1.16 Chrome/120.0.6099.109 Electron/28.1.0 Safari/537.36" etag="tA4remCKgMdLWKYUcD2u" version="22.1.16" type="device">
  <diagram name="Page-1" id="2hNV4AfwCZ38MkP76846">
    <mxGraphModel dx="748" dy="817" grid="1" gridSize="10" guides="1" tooltips="1" connect="1" arrows="1" fold="1" page="1" pageScale="1" pageWidth="850" pageHeight="1100" math="0" shadow="0">
      <root>
        <mxCell id="0" />
        <mxCell id="1" parent="0" />
        <mxCell id="8hOhlHKWgtqo1CIR-J7C-1" value="IAM Access Key&lt;br&gt;&lt;font color=&quot;#ff0000&quot;&gt;&lt;b&gt;(NON_COMPLIANT)&lt;/b&gt;&lt;/font&gt;" style="sketch=0;outlineConnect=0;fontColor=#232F3E;gradientColor=none;fillColor=#DD344C;strokeColor=none;dashed=0;verticalLabelPosition=middle;verticalAlign=middle;align=right;html=1;fontSize=12;fontStyle=0;aspect=fixed;pointerEvents=1;shape=mxgraph.aws4.addon;labelPosition=left;spacingRight=5;" vertex="1" parent="1">
          <mxGeometry x="460" y="520" width="78" height="40" as="geometry" />
        </mxCell>
        <mxCell id="8hOhlHKWgtqo1CIR-J7C-2" value="expired" style="sketch=0;outlineConnect=0;fontColor=#232F3E;gradientColor=none;fillColor=#7AA116;strokeColor=none;dashed=0;verticalLabelPosition=middle;verticalAlign=middle;align=right;html=1;fontSize=12;fontStyle=1;aspect=fixed;pointerEvents=1;shape=mxgraph.aws4.backup_recovery_time_objective;labelPosition=left;spacingRight=5;" vertex="1" parent="1">
          <mxGeometry x="480" y="490" width="31.2" height="30" as="geometry" />
        </mxCell>
        <mxCell id="8hOhlHKWgtqo1CIR-J7C-4" value="monitor" style="edgeStyle=orthogonalEdgeStyle;rounded=0;orthogonalLoop=1;jettySize=auto;html=1;" edge="1" parent="1" source="8hOhlHKWgtqo1CIR-J7C-3" target="8hOhlHKWgtqo1CIR-J7C-1">
          <mxGeometry relative="1" as="geometry" />
        </mxCell>
        <mxCell id="8hOhlHKWgtqo1CIR-J7C-6" value="trigger" style="edgeStyle=orthogonalEdgeStyle;rounded=0;orthogonalLoop=1;jettySize=auto;html=1;" edge="1" parent="1" source="8hOhlHKWgtqo1CIR-J7C-3" target="8hOhlHKWgtqo1CIR-J7C-5">
          <mxGeometry relative="1" as="geometry" />
        </mxCell>
        <mxCell id="8hOhlHKWgtqo1CIR-J7C-3" value="AWS Config" style="sketch=0;points=[[0,0,0],[0.25,0,0],[0.5,0,0],[0.75,0,0],[1,0,0],[0,1,0],[0.25,1,0],[0.5,1,0],[0.75,1,0],[1,1,0],[0,0.25,0],[0,0.5,0],[0,0.75,0],[1,0.25,0],[1,0.5,0],[1,0.75,0]];points=[[0,0,0],[0.25,0,0],[0.5,0,0],[0.75,0,0],[1,0,0],[0,1,0],[0.25,1,0],[0.5,1,0],[0.75,1,0],[1,1,0],[0,0.25,0],[0,0.5,0],[0,0.75,0],[1,0.25,0],[1,0.5,0],[1,0.75,0]];outlineConnect=0;fontColor=#232F3E;fillColor=#E7157B;strokeColor=#ffffff;dashed=0;verticalLabelPosition=bottom;verticalAlign=top;align=center;html=1;fontSize=12;fontStyle=0;aspect=fixed;shape=mxgraph.aws4.resourceIcon;resIcon=mxgraph.aws4.config;" vertex="1" parent="1">
          <mxGeometry x="660" y="501" width="78" height="78" as="geometry" />
        </mxCell>
        <mxCell id="8hOhlHKWgtqo1CIR-J7C-7" style="edgeStyle=orthogonalEdgeStyle;rounded=0;orthogonalLoop=1;jettySize=auto;html=1;" edge="1" parent="1" source="8hOhlHKWgtqo1CIR-J7C-5" target="8hOhlHKWgtqo1CIR-J7C-1">
          <mxGeometry relative="1" as="geometry">
            <Array as="points">
              <mxPoint x="985" y="650" />
              <mxPoint x="499" y="650" />
            </Array>
          </mxGeometry>
        </mxCell>
        <mxCell id="8hOhlHKWgtqo1CIR-J7C-5" value="Auto-Remediation Action&lt;br&gt;(SSM Document: AWSConfigRemediation-RevokeUnusedIAMUserCredentials)" style="rounded=0;whiteSpace=wrap;html=1;fillColor=#dae8fc;strokeColor=#6c8ebf;" vertex="1" parent="1">
          <mxGeometry x="850" y="510" width="270" height="60" as="geometry" />
        </mxCell>
        <mxCell id="8hOhlHKWgtqo1CIR-J7C-9" value="deactivate" style="text;html=1;align=center;verticalAlign=middle;resizable=0;points=[];autosize=1;strokeColor=none;fillColor=none;" vertex="1" parent="1">
          <mxGeometry x="664.5" y="620" width="80" height="30" as="geometry" />
        </mxCell>
        <mxCell id="8hOhlHKWgtqo1CIR-J7C-19" value="" style="shape=mxgraph.signs.safety.no;html=1;pointerEvents=1;fillColor=#FF0000;strokeColor=none;verticalLabelPosition=bottom;verticalAlign=top;align=center;sketch=0;" vertex="1" parent="1">
          <mxGeometry x="653.5" y="625" width="20" height="20" as="geometry" />
        </mxCell>
        <mxCell id="8hOhlHKWgtqo1CIR-J7C-23" style="edgeStyle=orthogonalEdgeStyle;rounded=0;orthogonalLoop=1;jettySize=auto;html=1;dashed=1;endArrow=none;endFill=0;" edge="1" parent="1" source="8hOhlHKWgtqo1CIR-J7C-21" target="8hOhlHKWgtqo1CIR-J7C-22">
          <mxGeometry relative="1" as="geometry" />
        </mxCell>
        <mxCell id="8hOhlHKWgtqo1CIR-J7C-21" value="Retries: 5" style="text;html=1;align=center;verticalAlign=middle;resizable=0;points=[];autosize=1;strokeColor=none;fillColor=none;fontStyle=1" vertex="1" parent="1">
          <mxGeometry x="910" y="584" width="80" height="30" as="geometry" />
        </mxCell>
        <mxCell id="8hOhlHKWgtqo1CIR-J7C-22" value="If a resource is still &lt;b&gt;non-compliant&lt;/b&gt; after auto-remediation,&lt;br&gt;you can set this rule to try again." style="text;html=1;align=center;verticalAlign=middle;resizable=0;points=[];autosize=1;strokeColor=none;fillColor=none;" vertex="1" parent="1">
          <mxGeometry x="1030" y="579" width="330" height="40" as="geometry" />
        </mxCell>
      </root>
    </mxGraphModel>
  </diagram>
</mxfile>
